<mxfile host="app.diagrams.net" modified="2023-12-12T04:27:11.942Z" agent="Mozilla/5.0 (Windows NT 10.0; Win64; x64) AppleWebKit/537.36 (KHTML, like Gecko) Chrome/121.0.0.0 Safari/537.36 Edg/121.0.0.0" etag="K8ZyMOpJwCrZZ-eUj-5k" version="22.1.7" type="github">
  <diagram id="C5RBs43oDa-KdzZeNtuy" name="Page-1">
    <mxGraphModel dx="1068" dy="485" grid="1" gridSize="10" guides="1" tooltips="1" connect="1" arrows="1" fold="1" page="1" pageScale="1" pageWidth="827" pageHeight="1169" math="0" shadow="0">
      <root>
        <mxCell id="WIyWlLk6GJQsqaUBKTNV-0" />
        <mxCell id="WIyWlLk6GJQsqaUBKTNV-1" parent="WIyWlLk6GJQsqaUBKTNV-0" />
        <mxCell id="c--17YrX7enodXzAXU3D-16" value="" style="edgeStyle=orthogonalEdgeStyle;rounded=0;orthogonalLoop=1;jettySize=auto;html=1;" edge="1" parent="WIyWlLk6GJQsqaUBKTNV-1" source="WIyWlLk6GJQsqaUBKTNV-3" target="c--17YrX7enodXzAXU3D-15">
          <mxGeometry relative="1" as="geometry" />
        </mxCell>
        <mxCell id="WIyWlLk6GJQsqaUBKTNV-3" value="初始化单片机" style="rounded=1;whiteSpace=wrap;html=1;fontSize=12;glass=0;strokeWidth=1;shadow=0;" parent="WIyWlLk6GJQsqaUBKTNV-1" vertex="1">
          <mxGeometry x="130" y="180" width="110" height="40" as="geometry" />
        </mxCell>
        <mxCell id="c--17YrX7enodXzAXU3D-30" value="" style="edgeStyle=orthogonalEdgeStyle;rounded=0;orthogonalLoop=1;jettySize=auto;html=1;fontFamily=Helvetica;fontSize=12;fontColor=default;" edge="1" parent="WIyWlLk6GJQsqaUBKTNV-1" source="c--17YrX7enodXzAXU3D-12" target="c--17YrX7enodXzAXU3D-22">
          <mxGeometry relative="1" as="geometry" />
        </mxCell>
        <mxCell id="c--17YrX7enodXzAXU3D-31" value="是" style="edgeLabel;html=1;align=center;verticalAlign=middle;resizable=0;points=[];fontSize=12;fontFamily=Helvetica;fontColor=default;" vertex="1" connectable="0" parent="c--17YrX7enodXzAXU3D-30">
          <mxGeometry x="-0.1959" y="2" relative="1" as="geometry">
            <mxPoint as="offset" />
          </mxGeometry>
        </mxCell>
        <mxCell id="c--17YrX7enodXzAXU3D-38" style="edgeStyle=orthogonalEdgeStyle;rounded=0;orthogonalLoop=1;jettySize=auto;html=1;entryX=0.5;entryY=0;entryDx=0;entryDy=0;fontFamily=Helvetica;fontSize=12;fontColor=default;" edge="1" parent="WIyWlLk6GJQsqaUBKTNV-1" source="c--17YrX7enodXzAXU3D-12" target="c--17YrX7enodXzAXU3D-15">
          <mxGeometry relative="1" as="geometry">
            <Array as="points">
              <mxPoint x="530" y="110" />
              <mxPoint x="364" y="110" />
            </Array>
          </mxGeometry>
        </mxCell>
        <mxCell id="c--17YrX7enodXzAXU3D-39" value="否" style="edgeLabel;html=1;align=center;verticalAlign=middle;resizable=0;points=[];fontSize=12;fontFamily=Helvetica;fontColor=default;" vertex="1" connectable="0" parent="c--17YrX7enodXzAXU3D-38">
          <mxGeometry x="-0.0385" y="-1" relative="1" as="geometry">
            <mxPoint as="offset" />
          </mxGeometry>
        </mxCell>
        <mxCell id="c--17YrX7enodXzAXU3D-12" value="检测按键" style="rhombus;whiteSpace=wrap;html=1;" vertex="1" parent="WIyWlLk6GJQsqaUBKTNV-1">
          <mxGeometry x="490" y="160" width="80" height="80" as="geometry" />
        </mxCell>
        <mxCell id="c--17YrX7enodXzAXU3D-19" value="" style="edgeStyle=orthogonalEdgeStyle;rounded=0;orthogonalLoop=1;jettySize=auto;html=1;" edge="1" parent="WIyWlLk6GJQsqaUBKTNV-1" source="c--17YrX7enodXzAXU3D-15" target="c--17YrX7enodXzAXU3D-12">
          <mxGeometry relative="1" as="geometry" />
        </mxCell>
        <mxCell id="c--17YrX7enodXzAXU3D-15" value="执行程序" style="rounded=1;whiteSpace=wrap;html=1;fontSize=12;glass=0;strokeWidth=1;shadow=0;" vertex="1" parent="WIyWlLk6GJQsqaUBKTNV-1">
          <mxGeometry x="304" y="180" width="120" height="40" as="geometry" />
        </mxCell>
        <mxCell id="c--17YrX7enodXzAXU3D-36" style="edgeStyle=orthogonalEdgeStyle;rounded=0;orthogonalLoop=1;jettySize=auto;html=1;entryX=0.5;entryY=1;entryDx=0;entryDy=0;fontFamily=Helvetica;fontSize=12;fontColor=default;" edge="1" parent="WIyWlLk6GJQsqaUBKTNV-1" source="c--17YrX7enodXzAXU3D-22" target="c--17YrX7enodXzAXU3D-15">
          <mxGeometry relative="1" as="geometry" />
        </mxCell>
        <mxCell id="c--17YrX7enodXzAXU3D-22" value="修改程序" style="rounded=1;whiteSpace=wrap;html=1;fontSize=12;glass=0;strokeWidth=1;shadow=0;" vertex="1" parent="WIyWlLk6GJQsqaUBKTNV-1">
          <mxGeometry x="470" y="290" width="120" height="40" as="geometry" />
        </mxCell>
        <mxCell id="c--17YrX7enodXzAXU3D-42" value="" style="edgeStyle=orthogonalEdgeStyle;rounded=0;orthogonalLoop=1;jettySize=auto;html=1;fontFamily=Helvetica;fontSize=12;fontColor=default;" edge="1" parent="WIyWlLk6GJQsqaUBKTNV-1" source="c--17YrX7enodXzAXU3D-40" target="c--17YrX7enodXzAXU3D-41">
          <mxGeometry relative="1" as="geometry" />
        </mxCell>
        <mxCell id="c--17YrX7enodXzAXU3D-40" value="主函数" style="rounded=1;whiteSpace=wrap;html=1;fontSize=12;glass=0;strokeWidth=1;shadow=0;" vertex="1" parent="WIyWlLk6GJQsqaUBKTNV-1">
          <mxGeometry x="20" y="450" width="110" height="40" as="geometry" />
        </mxCell>
        <mxCell id="c--17YrX7enodXzAXU3D-44" value="" style="edgeStyle=orthogonalEdgeStyle;rounded=0;orthogonalLoop=1;jettySize=auto;html=1;fontFamily=Helvetica;fontSize=12;fontColor=default;" edge="1" parent="WIyWlLk6GJQsqaUBKTNV-1" source="c--17YrX7enodXzAXU3D-41" target="c--17YrX7enodXzAXU3D-43">
          <mxGeometry relative="1" as="geometry" />
        </mxCell>
        <mxCell id="c--17YrX7enodXzAXU3D-41" value="lcd1602初始化，电机pwm初始化" style="rounded=1;whiteSpace=wrap;html=1;fontSize=12;glass=0;strokeWidth=1;shadow=0;" vertex="1" parent="WIyWlLk6GJQsqaUBKTNV-1">
          <mxGeometry x="150" y="450" width="110" height="40" as="geometry" />
        </mxCell>
        <mxCell id="c--17YrX7enodXzAXU3D-54" value="" style="edgeStyle=orthogonalEdgeStyle;rounded=0;orthogonalLoop=1;jettySize=auto;html=1;fontFamily=Helvetica;fontSize=12;fontColor=default;" edge="1" parent="WIyWlLk6GJQsqaUBKTNV-1" source="c--17YrX7enodXzAXU3D-43" target="c--17YrX7enodXzAXU3D-53">
          <mxGeometry relative="1" as="geometry" />
        </mxCell>
        <mxCell id="c--17YrX7enodXzAXU3D-55" value="K1按下" style="edgeLabel;html=1;align=center;verticalAlign=middle;resizable=0;points=[];fontSize=12;fontFamily=Helvetica;fontColor=default;" vertex="1" connectable="0" parent="c--17YrX7enodXzAXU3D-54">
          <mxGeometry x="-0.1667" y="1" relative="1" as="geometry">
            <mxPoint as="offset" />
          </mxGeometry>
        </mxCell>
        <mxCell id="c--17YrX7enodXzAXU3D-62" style="edgeStyle=orthogonalEdgeStyle;rounded=0;orthogonalLoop=1;jettySize=auto;html=1;entryX=0;entryY=0.75;entryDx=0;entryDy=0;fontFamily=Helvetica;fontSize=12;fontColor=default;" edge="1" parent="WIyWlLk6GJQsqaUBKTNV-1">
          <mxGeometry relative="1" as="geometry">
            <mxPoint x="335" y="480" as="sourcePoint" />
            <mxPoint x="460" y="540" as="targetPoint" />
            <Array as="points">
              <mxPoint x="335" y="540" />
            </Array>
          </mxGeometry>
        </mxCell>
        <mxCell id="c--17YrX7enodXzAXU3D-63" value="K2按下" style="edgeLabel;html=1;align=center;verticalAlign=middle;resizable=0;points=[];fontSize=12;fontFamily=Helvetica;fontColor=default;" vertex="1" connectable="0" parent="c--17YrX7enodXzAXU3D-62">
          <mxGeometry x="0.3081" y="-2" relative="1" as="geometry">
            <mxPoint as="offset" />
          </mxGeometry>
        </mxCell>
        <mxCell id="c--17YrX7enodXzAXU3D-68" style="edgeStyle=orthogonalEdgeStyle;rounded=0;orthogonalLoop=1;jettySize=auto;html=1;entryX=0;entryY=0.5;entryDx=0;entryDy=0;fontFamily=Helvetica;fontSize=12;fontColor=default;" edge="1" parent="WIyWlLk6GJQsqaUBKTNV-1" source="c--17YrX7enodXzAXU3D-43" target="c--17YrX7enodXzAXU3D-67">
          <mxGeometry relative="1" as="geometry">
            <Array as="points">
              <mxPoint x="335" y="605" />
            </Array>
          </mxGeometry>
        </mxCell>
        <mxCell id="c--17YrX7enodXzAXU3D-69" value="K3按下" style="edgeLabel;html=1;align=center;verticalAlign=middle;resizable=0;points=[];fontSize=12;fontFamily=Helvetica;fontColor=default;" vertex="1" connectable="0" parent="c--17YrX7enodXzAXU3D-68">
          <mxGeometry x="0.4436" y="-2" relative="1" as="geometry">
            <mxPoint y="-2" as="offset" />
          </mxGeometry>
        </mxCell>
        <mxCell id="c--17YrX7enodXzAXU3D-43" value="while（1）；" style="rounded=1;whiteSpace=wrap;html=1;fontSize=12;glass=0;strokeWidth=1;shadow=0;" vertex="1" parent="WIyWlLk6GJQsqaUBKTNV-1">
          <mxGeometry x="280" y="450" width="110" height="40" as="geometry" />
        </mxCell>
        <mxCell id="c--17YrX7enodXzAXU3D-57" value="" style="edgeStyle=orthogonalEdgeStyle;rounded=0;orthogonalLoop=1;jettySize=auto;html=1;fontFamily=Helvetica;fontSize=12;fontColor=default;" edge="1" parent="WIyWlLk6GJQsqaUBKTNV-1" source="c--17YrX7enodXzAXU3D-53" target="c--17YrX7enodXzAXU3D-56">
          <mxGeometry relative="1" as="geometry" />
        </mxCell>
        <mxCell id="c--17YrX7enodXzAXU3D-53" value="电机正转：&lt;br&gt;M1=1；M2=0;" style="rounded=1;whiteSpace=wrap;html=1;fontSize=12;glass=0;strokeWidth=1;shadow=0;" vertex="1" parent="WIyWlLk6GJQsqaUBKTNV-1">
          <mxGeometry x="460" y="450" width="110" height="40" as="geometry" />
        </mxCell>
        <mxCell id="c--17YrX7enodXzAXU3D-56" value="显示器电机状态显示为正转" style="rounded=1;whiteSpace=wrap;html=1;fontSize=12;glass=0;strokeWidth=1;shadow=0;" vertex="1" parent="WIyWlLk6GJQsqaUBKTNV-1">
          <mxGeometry x="610" y="450" width="110" height="40" as="geometry" />
        </mxCell>
        <mxCell id="c--17YrX7enodXzAXU3D-59" style="edgeStyle=orthogonalEdgeStyle;rounded=0;orthogonalLoop=1;jettySize=auto;html=1;entryX=0.43;entryY=0.013;entryDx=0;entryDy=0;entryPerimeter=0;fontFamily=Helvetica;fontSize=12;fontColor=default;" edge="1" parent="WIyWlLk6GJQsqaUBKTNV-1">
          <mxGeometry relative="1" as="geometry">
            <mxPoint x="677.6655172413793" y="449.48000000000013" as="sourcePoint" />
            <mxPoint x="339.99999999999994" y="450" as="targetPoint" />
            <Array as="points">
              <mxPoint x="677.7" y="389.48" />
              <mxPoint x="339.7" y="389.48" />
            </Array>
          </mxGeometry>
        </mxCell>
        <mxCell id="c--17YrX7enodXzAXU3D-65" value="" style="edgeStyle=orthogonalEdgeStyle;rounded=0;orthogonalLoop=1;jettySize=auto;html=1;fontFamily=Helvetica;fontSize=12;fontColor=default;" edge="1" parent="WIyWlLk6GJQsqaUBKTNV-1" source="c--17YrX7enodXzAXU3D-61" target="c--17YrX7enodXzAXU3D-64">
          <mxGeometry relative="1" as="geometry" />
        </mxCell>
        <mxCell id="c--17YrX7enodXzAXU3D-61" value="电机反转：&lt;br&gt;M1=0；M2=1;" style="rounded=1;whiteSpace=wrap;html=1;fontSize=12;glass=0;strokeWidth=1;shadow=0;" vertex="1" parent="WIyWlLk6GJQsqaUBKTNV-1">
          <mxGeometry x="460" y="520" width="110" height="40" as="geometry" />
        </mxCell>
        <mxCell id="c--17YrX7enodXzAXU3D-66" style="edgeStyle=orthogonalEdgeStyle;rounded=0;orthogonalLoop=1;jettySize=auto;html=1;fontFamily=Helvetica;fontSize=12;fontColor=default;" edge="1" parent="WIyWlLk6GJQsqaUBKTNV-1" source="c--17YrX7enodXzAXU3D-64">
          <mxGeometry relative="1" as="geometry">
            <mxPoint x="580" y="390" as="targetPoint" />
            <Array as="points">
              <mxPoint x="750" y="540" />
              <mxPoint x="750" y="390" />
            </Array>
          </mxGeometry>
        </mxCell>
        <mxCell id="c--17YrX7enodXzAXU3D-64" value="显示器电机状态显示为反转" style="rounded=1;whiteSpace=wrap;html=1;fontSize=12;glass=0;strokeWidth=1;shadow=0;" vertex="1" parent="WIyWlLk6GJQsqaUBKTNV-1">
          <mxGeometry x="610" y="520" width="110" height="40" as="geometry" />
        </mxCell>
        <mxCell id="c--17YrX7enodXzAXU3D-71" value="" style="edgeStyle=orthogonalEdgeStyle;rounded=0;orthogonalLoop=1;jettySize=auto;html=1;fontFamily=Helvetica;fontSize=12;fontColor=default;" edge="1" parent="WIyWlLk6GJQsqaUBKTNV-1" source="c--17YrX7enodXzAXU3D-67" target="c--17YrX7enodXzAXU3D-70">
          <mxGeometry relative="1" as="geometry" />
        </mxCell>
        <mxCell id="c--17YrX7enodXzAXU3D-67" value="电机加速：&lt;br&gt;输出的PWM高电平占空比增加" style="rounded=1;whiteSpace=wrap;html=1;fontSize=12;glass=0;strokeWidth=1;shadow=0;" vertex="1" parent="WIyWlLk6GJQsqaUBKTNV-1">
          <mxGeometry x="460" y="585" width="110" height="40" as="geometry" />
        </mxCell>
        <mxCell id="c--17YrX7enodXzAXU3D-72" style="edgeStyle=orthogonalEdgeStyle;rounded=0;orthogonalLoop=1;jettySize=auto;html=1;fontFamily=Helvetica;fontSize=12;fontColor=default;" edge="1" parent="WIyWlLk6GJQsqaUBKTNV-1" source="c--17YrX7enodXzAXU3D-70">
          <mxGeometry relative="1" as="geometry">
            <mxPoint x="749.9999999999998" y="390" as="targetPoint" />
          </mxGeometry>
        </mxCell>
        <mxCell id="c--17YrX7enodXzAXU3D-70" value="显示器电机pwm值增加" style="rounded=1;whiteSpace=wrap;html=1;fontSize=12;glass=0;strokeWidth=1;shadow=0;" vertex="1" parent="WIyWlLk6GJQsqaUBKTNV-1">
          <mxGeometry x="610" y="585" width="110" height="40" as="geometry" />
        </mxCell>
      </root>
    </mxGraphModel>
  </diagram>
</mxfile>
